<?xml version="1.0" encoding="utf-8"?>
<!-- Generator: Adobe Illustrator 16.0.0, SVG Export Plug-In . SVG Version: 6.00 Build 0)  -->
<!DOCTYPE svg PUBLIC "-//W3C//DTD SVG 1.1//EN" "http://www.w3.org/Graphics/SVG/1.1/DTD/svg11.dtd">
<svg version="1.1" id="Layer_1" xmlns="http://www.w3.org/2000/svg" xmlns:xlink="http://www.w3.org/1999/xlink" x="0px" y="0px"
	 width="60px" height="60px" viewBox="0 0 60 60" enable-background="new 0 0 60 60" xml:space="preserve">
<g>
	<path fill="#010002" d="M39.546,19.395l4.242,4.242L26.82,40.606L16.211,30l4.243-4.242l6.363,6.364L39.546,19.395z M60,12v36
		c0,6.601-5.399,12-12,12H12c-6.6,0-12-5.399-12-12V12c0-6.6,5.399-12,12-12h36C54.601,0,60,5.399,60,12z M52.5,30
		C52.5,17.57,42.428,7.5,30,7.5C17.57,7.5,7.5,17.57,7.5,30C7.5,42.428,17.57,52.5,30,52.5C42.428,52.5,52.5,42.428,52.5,30z"/>
</g>
</svg>
