<?xml version="1.0" encoding="utf-8"?>
<!-- Generator: Adobe Illustrator 16.0.0, SVG Export Plug-In . SVG Version: 6.00 Build 0)  -->
<!DOCTYPE svg PUBLIC "-//W3C//DTD SVG 1.1//EN" "http://www.w3.org/Graphics/SVG/1.1/DTD/svg11.dtd">
<svg version="1.1" id="Layer_1" xmlns="http://www.w3.org/2000/svg" xmlns:xlink="http://www.w3.org/1999/xlink" x="0px" y="0px"
	 width="60px" height="60px" viewBox="0 0 60 60" enable-background="new 0 0 60 60" xml:space="preserve">
<g id="g3397">
	<path id="path3399" fill="#FFFFFF" stroke="#010101" d="M39.387,19.571l4.172,4.171L26.873,40.43L16.441,30.001l4.172-4.171
		l6.257,6.257L39.387,19.571z M59.5,12.3v35.4c0,6.49-5.31,11.8-11.8,11.8H12.3c-6.49,0-11.8-5.31-11.8-11.8V12.3
		c0-6.49,5.31-11.8,11.8-11.8h35.399C54.19,0.5,59.5,5.81,59.5,12.3z M52.125,30c0-12.222-9.904-22.125-22.125-22.125
		C17.778,7.875,7.875,17.778,7.875,30c0,12.221,9.903,22.125,22.125,22.125C42.221,52.125,52.125,42.221,52.125,30z"/>
</g>
</svg>
