<?xml version="1.0" encoding="utf-8"?>
<!-- Generator: Adobe Illustrator 16.0.0, SVG Export Plug-In . SVG Version: 6.00 Build 0)  -->
<!DOCTYPE svg PUBLIC "-//W3C//DTD SVG 1.1//EN" "http://www.w3.org/Graphics/SVG/1.1/DTD/svg11.dtd">
<svg version="1.1" id="Layer_1" xmlns="http://www.w3.org/2000/svg" xmlns:xlink="http://www.w3.org/1999/xlink" x="0px" y="0px"
	 width="30px" height="30px" viewBox="0 0 30 30" enable-background="new 0 0 30 30" xml:space="preserve">
<path fill="#010101" d="M29.666,12.644c-0.057-0.076-1.419-1.876-3.895-3.676C22.481,6.575,18.757,5.311,15,5.311
	c-3.757,0-7.481,1.265-10.771,3.657c-2.476,1.8-3.838,3.6-3.895,3.676c-0.279,0.372-0.279,0.885,0,1.257
	c0.05,0.066,1.104,1.458,3.031,3.013l-1.402,2.804c-0.258,0.517-0.049,1.146,0.469,1.405c0.15,0.075,0.31,0.111,0.468,0.111
	c0.384,0,0.754-0.212,0.938-0.58l1.245-2.489c1.066,0.697,2.173,1.28,3.307,1.744l-1.24,2.479c-0.259,0.518-0.049,1.146,0.469,1.406
	c0.15,0.074,0.31,0.11,0.467,0.11c0.384,0,0.754-0.213,0.938-0.579l1.365-2.731c1.172,0.327,2.364,0.531,3.564,0.606v2.441
	c0,0.579,0.469,1.048,1.047,1.048c0.578,0,1.048-0.469,1.048-1.048V21.2c1.199-0.075,2.392-0.279,3.563-0.606l1.365,2.731
	c0.184,0.366,0.554,0.579,0.938,0.579c0.157,0,0.317-0.036,0.467-0.11c0.518-0.26,0.728-0.889,0.469-1.406l-1.239-2.479
	c1.134-0.464,2.239-1.047,3.306-1.744l1.245,2.489c0.184,0.368,0.554,0.58,0.938,0.58c0.157,0,0.316-0.036,0.467-0.111
	c0.518-0.259,0.728-0.889,0.469-1.405l-1.402-2.804c1.928-1.555,2.981-2.946,3.032-3.013C29.944,13.528,29.944,13.016,29.666,12.644
	z M24.482,15.922c-2.956,2.134-6.146,3.216-9.482,3.216c-3.336,0-6.526-1.082-9.483-3.216c-1.393-1.005-2.404-2.021-2.973-2.65
	c0.569-0.629,1.581-1.646,2.973-2.649C8.474,8.487,11.665,7.406,15,7.406c3.335,0,6.526,1.081,9.482,3.216
	c1.392,1.005,2.404,2.021,2.974,2.649C26.886,13.901,25.874,14.917,24.482,15.922z"/>
</svg>
