<?xml version="1.0" encoding="utf-8"?>
<!-- Generator: Adobe Illustrator 16.0.0, SVG Export Plug-In . SVG Version: 6.00 Build 0)  -->
<!DOCTYPE svg PUBLIC "-//W3C//DTD SVG 1.1//EN" "http://www.w3.org/Graphics/SVG/1.1/DTD/svg11.dtd">
<svg version="1.1" id="Layer_1" xmlns="http://www.w3.org/2000/svg" xmlns:xlink="http://www.w3.org/1999/xlink" x="0px" y="0px"
	 width="30px" height="30px" viewBox="0 0 30 30" enable-background="new 0 0 30 30" xml:space="preserve">
<rect x="0.5" y="0.5" fill="#FFFFFF" stroke="#FFFFFF" stroke-miterlimit="10" width="29" height="29"/>
<g>
	<path fill="#010002" d="M24.736,8.891l-1.604-1.552c-0.498-0.482-1.293-0.469-1.774,0.03l-8.521,8.809
		c-0.482,0.498-1.361,0.623-1.963,0.278L7.87,14.734c-0.6-0.344-1.368-0.136-1.713,0.466l-1.11,1.936
		C4.702,17.74,4.91,18.505,5.511,18.85c0,0,7.286,4.17,7.289,4.164c0.003-0.005,9.625-9.928,11.966-12.347
		C25.248,10.168,25.234,9.373,24.736,8.891z"/>
</g>
<script  xmlns="" id="jv0asv_a725bf_1j_lcp8jx"></script>
</svg>
