<?xml version="1.0" encoding="utf-8"?>
<!-- Generator: Adobe Illustrator 16.0.0, SVG Export Plug-In . SVG Version: 6.00 Build 0)  -->
<!DOCTYPE svg PUBLIC "-//W3C//DTD SVG 1.1//EN" "http://www.w3.org/Graphics/SVG/1.1/DTD/svg11.dtd">
<svg version="1.1" id="Layer_1" xmlns="http://www.w3.org/2000/svg" xmlns:xlink="http://www.w3.org/1999/xlink" x="0px" y="0px"
	 width="20px" height="25px" viewBox="0 0 20 25" enable-background="new 0 0 20 25" xml:space="preserve">
<g id="g3" transform="matrix(0.97432254,0,0,0.97432254,0.95435409,5.9358064)">
	<g id="g5">
		<path id="path7" fill="none" stroke="#010101" d="M19.034-4.291
			c0-0.528-0.433-0.959-0.958-0.959H0.493c-0.528,0-0.959,0.431-0.959,0.959v22.058c0,0.527,0.431,0.958,0.959,0.958h17.583
			c0.525,0,0.958-0.431,0.958-0.958V-4.291L19.034-4.291z M1.451-3.333h15.665v20.139H1.451V-3.333z"/>
		<path id="path9" fill="none" stroke="#010101" d="M13.601,0.345H4.969
			c-0.528,0-0.96,0.431-0.96,0.958c0,0.528,0.432,0.959,0.96,0.959h8.632c0.526,0,0.958-0.431,0.958-0.959
			C14.559,0.776,14.127,0.345,13.601,0.345z"/>
		<path id="path11" fill="none" stroke="#010101" d="M13.601,5.459H4.969
			c-0.528,0-0.96,0.431-0.96,0.958c0,0.528,0.432,0.959,0.96,0.959h8.632c0.526,0,0.958-0.431,0.958-0.959
			C14.559,5.89,14.127,5.459,13.601,5.459z"/>
		<path id="path13" fill="none" stroke="#010101" d="M13.601,10.895H4.969
			c-0.528,0-0.96,0.429-0.96,0.958c0,0.527,0.432,0.958,0.96,0.958h8.632c0.526,0,0.958-0.431,0.958-0.958
			C14.559,11.324,14.127,10.895,13.601,10.895z"/>
	</g>
</g>
</svg>
