<?xml version="1.0" encoding="utf-8"?>
<!-- Generator: Adobe Illustrator 16.0.0, SVG Export Plug-In . SVG Version: 6.00 Build 0)  -->
<!DOCTYPE svg PUBLIC "-//W3C//DTD SVG 1.1//EN" "http://www.w3.org/Graphics/SVG/1.1/DTD/svg11.dtd">
<svg version="1.1" id="Layer_1" xmlns="http://www.w3.org/2000/svg" xmlns:xlink="http://www.w3.org/1999/xlink" x="0px" y="0px"
	 width="20px" height="25px" viewBox="0 0 20 25" enable-background="new 0 0 20 25" xml:space="preserve">
<g>
	<g>
		<path fill="#010101" d="M20,1.189c0-0.541-0.442-0.984-0.984-0.984H0.983C0.442,0.205,0,0.648,0,1.189v22.622
			c0,0.541,0.442,0.984,0.983,0.984h18.032c0.542,0,0.984-0.443,0.984-0.984V1.189L20,1.189z M1.967,2.172h16.065v20.656H1.967
			V2.172z"/>
		<path fill="#010101" d="M14.427,5.943H5.573c-0.54,0-0.983,0.442-0.983,0.984c0,0.541,0.443,0.983,0.983,0.983h8.854
			c0.54,0,0.982-0.443,0.982-0.983C15.409,6.385,14.967,5.943,14.427,5.943z"/>
		<path fill="#010101" d="M14.427,11.188H5.573c-0.54,0-0.983,0.442-0.983,0.983c0,0.542,0.443,0.984,0.983,0.984h8.854
			c0.54,0,0.982-0.443,0.982-0.984C15.409,11.631,14.967,11.188,14.427,11.188z"/>
		<path fill="#010101" d="M14.427,16.763H5.573c-0.54,0-0.983,0.441-0.983,0.982c0,0.542,0.443,0.985,0.983,0.985h8.854
			c0.54,0,0.982-0.443,0.982-0.985C15.409,17.204,14.967,16.763,14.427,16.763z"/>
	</g>
</g>
</svg>
