<?xml version="1.0" encoding="utf-8"?>
<!-- Generator: Adobe Illustrator 16.0.0, SVG Export Plug-In . SVG Version: 6.00 Build 0)  -->
<!DOCTYPE svg PUBLIC "-//W3C//DTD SVG 1.1//EN" "http://www.w3.org/Graphics/SVG/1.1/DTD/svg11.dtd">
<svg version="1.1" id="Layer_1" xmlns="http://www.w3.org/2000/svg" xmlns:xlink="http://www.w3.org/1999/xlink" x="0px" y="0px"
	 width="60px" height="60px" viewBox="0 0 60 60" enable-background="new 0 0 60 60" xml:space="preserve">
<path d="M30,0C13.432,0,0,13.432,0,30c0,6.271,1.925,12.091,5.215,16.904L1.274,58.727l11.822-3.941C17.909,58.075,23.729,60,30,60
	c16.568,0,30-13.432,30-30S46.568,0,30,0z M19.451,31.979c-1.092,0-1.978-0.887-1.978-1.979c0-1.092,0.886-1.978,1.978-1.978
	s1.978,0.886,1.978,1.978C21.429,31.092,20.543,31.979,19.451,31.979z M30,31.979c-1.092,0-1.978-0.887-1.978-1.979
	c0-1.092,0.886-1.978,1.978-1.978c1.092,0,1.979,0.886,1.979,1.978C31.979,31.092,31.092,31.979,30,31.979z M40.549,31.979
	c-1.092,0-1.978-0.887-1.978-1.979c0-1.092,0.886-1.978,1.978-1.978c1.093,0,1.979,0.886,1.979,1.978
	C42.527,31.092,41.642,31.979,40.549,31.979z"/>
</svg>
