<?xml version="1.0" encoding="utf-8"?>
<!-- Generator: Adobe Illustrator 16.0.0, SVG Export Plug-In . SVG Version: 6.00 Build 0)  -->
<!DOCTYPE svg PUBLIC "-//W3C//DTD SVG 1.1//EN" "http://www.w3.org/Graphics/SVG/1.1/DTD/svg11.dtd">
<svg version="1.1"
	 id="Layer_1" sodipodi:docname="speech-bubble_outline.svg" inkscape:version="0.91 r13725" xmlns:dc="http://purl.org/dc/elements/1.1/" xmlns:cc="http://creativecommons.org/ns#" xmlns:rdf="http://www.w3.org/1999/02/22-rdf-syntax-ns#" xmlns:svg="http://www.w3.org/2000/svg" xmlns:sodipodi="http://sodipodi.sourceforge.net/DTD/sodipodi-0.dtd" xmlns:inkscape="http://www.inkscape.org/namespaces/inkscape"
	 xmlns="http://www.w3.org/2000/svg" xmlns:xlink="http://www.w3.org/1999/xlink" x="0px" y="0px" width="60px" height="60px"
	 viewBox="0 0 60 60" enable-background="new 0 0 60 60" xml:space="preserve">
<path id="path3" inkscape:connector-curvature="0" fill="none" stroke="#000000" stroke-width="2" d="M30.165,1.017
	c-16.083,0-29.12,13.038-29.12,29.12c0,6.086,1.869,11.736,5.062,16.408L2.282,58.02l11.475-3.824
	c4.672,3.193,10.322,5.061,16.408,5.061c16.083,0,29.12-13.037,29.12-29.119C59.285,14.054,46.248,1.017,30.165,1.017z
	 M19.925,32.057c-1.061,0-1.92-0.859-1.92-1.92s0.859-1.92,1.92-1.92c1.06,0,1.92,0.859,1.92,1.92S20.985,32.057,19.925,32.057z
	 M30.165,32.057c-1.06,0-1.92-0.859-1.92-1.92s0.86-1.92,1.92-1.92c1.061,0,1.92,0.859,1.92,1.92S31.226,32.057,30.165,32.057z
	 M40.405,32.057c-1.061,0-1.921-0.859-1.921-1.92s0.86-1.92,1.921-1.92c1.06,0,1.92,0.859,1.92,1.92S41.465,32.057,40.405,32.057z"
	/>
</svg>
