<?xml version="1.0" encoding="utf-8"?>
<!-- Generator: Adobe Illustrator 16.0.0, SVG Export Plug-In . SVG Version: 6.00 Build 0)  -->
<!DOCTYPE svg PUBLIC "-//W3C//DTD SVG 1.1//EN" "http://www.w3.org/Graphics/SVG/1.1/DTD/svg11.dtd">
<svg version="1.1" id="Layer_1" xmlns="http://www.w3.org/2000/svg" xmlns:xlink="http://www.w3.org/1999/xlink" x="0px" y="0px"
	 width="60px" height="60px" viewBox="0 0 60 60" enable-background="new 0 0 60 60" xml:space="preserve">
<g>
	<g>
		<path fill="none" stroke="#000000" stroke-miterlimit="10" d="M29.999,1C13.983,1,1,13.984,1,30c0,16.016,12.983,29,28.999,29
			C46.016,59,59,46.016,59,30C59,13.984,46.016,1,29.999,1z M22.453,21.369c0.401-0.401,0.927-0.601,1.452-0.601
			c0.525,0,1.051,0.201,1.451,0.601l2.571,2.57v-0.756V13.08c0-1.134,0.919-2.054,2.053-2.054c1.133,0,2.055,0.919,2.055,2.054
			v10.104v0.895l0.896-0.895l1.813-1.815c0.4-0.4,0.927-0.602,1.451-0.602c0.525,0,1.052,0.201,1.453,0.602
			c0.494,0.494,0.682,1.176,0.566,1.815l-0.001,0.001c-0.01,0.046-0.022,0.091-0.034,0.136c-0.019,0.071-0.037,0.141-0.063,0.21
			c-0.018,0.046-0.035,0.09-0.059,0.136c-0.031,0.071-0.067,0.14-0.109,0.208c-0.02,0.036-0.041,0.073-0.063,0.106
			c-0.072,0.101-0.146,0.2-0.238,0.29l-2.922,2.922l-3.207,3.208c-0.4,0.401-0.928,0.602-1.452,0.602c-0.005,0-0.009,0-0.015,0
			c-0.005,0-0.011,0-0.016,0c-0.525,0-1.05-0.2-1.451-0.602l-3.208-3.208l-2.922-2.922c-0.09-0.09-0.167-0.188-0.236-0.289
			c-0.024-0.036-0.044-0.072-0.067-0.108c-0.04-0.068-0.076-0.137-0.108-0.207c-0.021-0.047-0.041-0.092-0.058-0.139
			c-0.024-0.068-0.043-0.135-0.061-0.204c-0.011-0.047-0.028-0.094-0.037-0.141C21.772,22.544,21.96,21.863,22.453,21.369z
			 M45.771,41.468L45.771,41.468c0,2.771-2.72,4.943-6.188,4.943H20.417c-3.469,0-6.188-2.172-6.188-4.943V28.126
			c0-2.342,1.943-4.25,4.641-4.787c0.117,1.157,0.624,2.229,1.457,3.062l0.793,0.795h-0.704c-1.405,0-2.176,0.7-2.176,0.931v13.341
			c0,0.232,0.771,0.933,2.176,0.933h19.167c1.403,0,2.176-0.699,2.176-0.933V28.126c0-0.23-0.771-0.931-2.176-0.931H38.98
			l0.793-0.795c0.828-0.827,1.334-1.893,1.455-3.041c2.645,0.563,4.541,2.454,4.541,4.768v13.341H45.771z"/>
	</g>
</g>
</svg>
