<?xml version="1.0" encoding="utf-8"?>
<!-- Generator: Adobe Illustrator 16.0.0, SVG Export Plug-In . SVG Version: 6.00 Build 0)  -->
<!DOCTYPE svg PUBLIC "-//W3C//DTD SVG 1.1//EN" "http://www.w3.org/Graphics/SVG/1.1/DTD/svg11.dtd">
<svg version="1.1" id="Layer_1" xmlns="http://www.w3.org/2000/svg" xmlns:xlink="http://www.w3.org/1999/xlink" x="0px" y="0px"
	 width="60px" height="60px" viewBox="0 0 60 60" enable-background="new 0 0 60 60" xml:space="preserve">
<g>
	<g>
		<path d="M29.999,0C13.431,0,0,13.432,0,30c0,16.567,13.431,30,29.999,30C46.566,60,60,46.566,60,30C60,13.432,46.566,0,29.999,0z
			 M22.193,21.071c0.415-0.415,0.959-0.622,1.502-0.622s1.087,0.208,1.501,0.622l2.66,2.659v-0.782V12.496
			c0-1.173,0.951-2.125,2.124-2.125s2.125,0.951,2.125,2.125v10.453v0.926l0.926-0.926l1.877-1.877
			c0.415-0.415,0.958-0.623,1.502-0.623c0.543,0,1.087,0.208,1.502,0.623c0.511,0.51,0.705,1.216,0.587,1.877
			c0,0-0.001,0.001-0.001,0.001c-0.009,0.048-0.023,0.094-0.035,0.141c-0.019,0.073-0.038,0.146-0.064,0.217
			c-0.018,0.048-0.038,0.094-0.06,0.141c-0.033,0.074-0.071,0.145-0.114,0.216c-0.021,0.037-0.043,0.075-0.067,0.11
			c-0.073,0.104-0.151,0.207-0.245,0.3l-3.023,3.023l-3.318,3.318c-0.415,0.415-0.959,0.622-1.501,0.622c-0.005,0-0.01,0-0.016,0
			c-0.005,0-0.011,0-0.016,0c-0.543,0-1.086-0.207-1.501-0.622l-3.318-3.318l-3.023-3.023c-0.093-0.093-0.173-0.195-0.244-0.299
			c-0.025-0.037-0.046-0.075-0.069-0.112c-0.041-0.07-0.079-0.141-0.112-0.214c-0.022-0.048-0.042-0.095-0.06-0.144
			c-0.025-0.07-0.045-0.14-0.063-0.211c-0.012-0.049-0.029-0.097-0.038-0.146C21.489,22.287,21.683,21.582,22.193,21.071z
			 M46.314,41.863L46.314,41.863c0,2.867-2.812,5.113-6.4,5.113H20.087c-3.589,0-6.401-2.246-6.401-5.113V28.062
			c0-2.423,2.011-4.397,4.801-4.952c0.121,1.196,0.645,2.305,1.507,3.167l0.821,0.822h-0.728c-1.453,0-2.251,0.724-2.251,0.963
			v13.801c0,0.24,0.798,0.964,2.251,0.964h19.827c1.453,0,2.251-0.724,2.251-0.964V28.062c0-0.239-0.798-0.963-2.251-0.963H39.29
			l0.822-0.822c0.856-0.856,1.379-1.958,1.503-3.146c2.736,0.583,4.699,2.538,4.699,4.932V41.863z"/>
	</g>
</g>
</svg>
