<?xml version="1.0" encoding="utf-8"?>
<!-- Generator: Adobe Illustrator 16.0.0, SVG Export Plug-In . SVG Version: 6.00 Build 0)  -->
<!DOCTYPE svg PUBLIC "-//W3C//DTD SVG 1.1//EN" "http://www.w3.org/Graphics/SVG/1.1/DTD/svg11.dtd">
<svg version="1.1" id="Layer_1" xmlns="http://www.w3.org/2000/svg" xmlns:xlink="http://www.w3.org/1999/xlink" x="0px" y="0px"
	 width="24px" height="24px" viewBox="0 0 24 24" enable-background="new 0 0 24 24" xml:space="preserve">
<g>
	<path d="M12,4.374c-5.148,0-9.585,3.035-11.624,7.415c-0.063,0.132-0.063,0.288,0,0.423c2.038,4.38,6.475,7.414,11.624,7.414
		c5.147,0,9.586-3.034,11.624-7.414c0.062-0.133,0.062-0.288,0-0.423C21.586,7.409,17.147,4.374,12,4.374z M12,17.263
		c-2.907,0-5.261-2.356-5.261-5.262C6.739,9.095,9.095,6.74,12,6.74c2.907,0,5.261,2.356,5.261,5.261
		C17.261,14.906,14.905,17.263,12,17.263z"/>
	<circle cx="12" cy="11.999" r="3.368"/>
</g>
</svg>
