<?xml version="1.0" encoding="UTF-8" standalone="no"?>
<!-- Generator: Adobe Illustrator 18.1.1, SVG Export Plug-In . SVG Version: 6.00 Build 0)  -->

<svg
   xmlns:dc="http://purl.org/dc/elements/1.1/"
   xmlns:cc="http://creativecommons.org/ns#"
   xmlns:rdf="http://www.w3.org/1999/02/22-rdf-syntax-ns#"
   xmlns:svg="http://www.w3.org/2000/svg"
   xmlns="http://www.w3.org/2000/svg"
   xmlns:sodipodi="http://sodipodi.sourceforge.net/DTD/sodipodi-0.dtd"
   xmlns:inkscape="http://www.inkscape.org/namespaces/inkscape"
   version="1.1"
   id="Capa_1"
   x="0px"
   y="0px"
   viewBox="0 0 60.000002 60.000002"
   xml:space="preserve"
   inkscape:version="0.91 r13725"
   sodipodi:docname="not-active_outlined.svg"
   width="40"
   height="40"><metadata
     id="metadata86"><rdf:RDF><cc:Work
         rdf:about=""><dc:format>image/svg+xml</dc:format><dc:type
           rdf:resource="http://purl.org/dc/dcmitype/StillImage" /><dc:title></dc:title></cc:Work></rdf:RDF></metadata><defs
     id="defs84" /><sodipodi:namedview
     pagecolor="#ffffff"
     bordercolor="#666666"
     borderopacity="1"
     objecttolerance="10"
     gridtolerance="10"
     guidetolerance="10"
     inkscape:pageopacity="0"
     inkscape:pageshadow="2"
     inkscape:window-width="1301"
     inkscape:window-height="744"
     id="namedview82"
     showgrid="false"
     inkscape:zoom="4"
     inkscape:cx="-5.9355611"
     inkscape:cy="30.362499"
     inkscape:window-x="65"
     inkscape:window-y="24"
     inkscape:window-maximized="1"
     inkscape:current-layer="Capa_1" /><g
     id="g44"
     transform="matrix(-0.93542816,0,0,0.93542816,59.014634,1.7196636)"
     style="fill:#ffffff;stroke:#000000;stroke-width:2.61620975;stroke-miterlimit:4;stroke-dasharray:none;stroke-opacity:1"><g
       id="g46"
       style="fill:#ffffff;stroke:#000000;stroke-width:2.61620975;stroke-miterlimit:4;stroke-dasharray:none;stroke-opacity:1"><circle
         style="fill:#ffffff;stroke:#000000;stroke-width:2.61620975;stroke-miterlimit:4;stroke-dasharray:none;stroke-opacity:1"
         cx="19.969"
         cy="6.0079999"
         r="6.0079999"
         id="circle48" /><path
         style="fill:#ffffff;stroke:#000000;stroke-width:2.61620975;stroke-miterlimit:4;stroke-dasharray:none;stroke-opacity:1"
         d="m 53.99,37.782 c -6.299,3.684 -10.077,-1.721 -12.923,-6.924 -0.124,-0.501 -0.307,-1.009 -0.57,-1.522 -2.203,-4.285 -4.502,-8.527 -6.908,-12.703 4.699,-1.499 8.996,-0.13 12.375,4.602 2.748,3.85 9.176,0.158 6.396,-3.737 C 45.82,8.339 36.068,6.066 26.305,11.862 c -0.406,0.241 -0.732,0.521 -0.993,0.828 -0.148,0.058 -0.295,0.122 -0.44,0.19 -0.397,0.08 -0.806,0.233 -1.219,0.478 -6.069,3.603 -11.709,2.92 -15.921,-2.98 -2.75,-3.85 -9.176,-0.158 -6.395,3.737 5.374,7.527 12.919,10.392 20.857,7.96 2.491,4.278 4.856,8.632 7.128,13.032 -3.358,1.717 -6.467,3.853 -9.357,6.368 -0.125,0.109 -0.236,0.222 -0.341,0.335 -0.629,0.323 -1.184,0.868 -1.575,1.676 -1.942,4.015 -3.886,8.028 -5.828,12.043 -2.086,4.312 4.626,7.438 6.704,3.146 1.846,-3.814 3.694,-7.633 5.541,-11.445 0.25,-0.141 0.498,-0.309 0.736,-0.518 3.352,-2.918 7.191,-5.283 11.396,-6.748 0.207,-0.072 0.396,-0.158 0.574,-0.254 5.148,6.533 12.33,10.131 20.93,5.105 4.531,-2.648 0.433,-9.689 -4.112,-7.033 z"
         id="path50"
         inkscape:connector-curvature="0" /></g></g><g
     id="g52"
     transform="translate(0,-0.72499852)" /><g
     id="g54"
     transform="translate(0,-0.72499852)" /><g
     id="g56"
     transform="translate(0,-0.72499852)" /><g
     id="g58"
     transform="translate(0,-0.72499852)" /><g
     id="g60"
     transform="translate(0,-0.72499852)" /><g
     id="g62"
     transform="translate(0,-0.72499852)" /><g
     id="g64"
     transform="translate(0,-0.72499852)" /><g
     id="g66"
     transform="translate(0,-0.72499852)" /><g
     id="g68"
     transform="translate(0,-0.72499852)" /><g
     id="g70"
     transform="translate(0,-0.72499852)" /><g
     id="g72"
     transform="translate(0,-0.72499852)" /><g
     id="g74"
     transform="translate(0,-0.72499852)" /><g
     id="g76"
     transform="translate(0,-0.72499852)" /><g
     id="g78"
     transform="translate(0,-0.72499852)" /><g
     id="g80"
     transform="translate(0,-0.72499852)" /><ellipse
     style="fill:#ffffff;fill-opacity:1;stroke:#ffffff;stroke-width:2.44727635;stroke-linejoin:miter;stroke-miterlimit:4;stroke-dasharray:none;stroke-opacity:1"
     id="path4236"
     cx="46.668968"
     cy="44.950031"
     rx="8.4431639"
     ry="8.8686562" /><g
     id="g3"
     transform="matrix(0.05430175,0,0,0.05430175,33.193262,32.660831)"
     style="fill:#ffffff;stroke:#000000;stroke-width:45.06809235;stroke-miterlimit:4;stroke-dasharray:none;stroke-opacity:1"><path
       inkscape:connector-curvature="0"
       d="M 409.133,109.203 C 389.525,75.611 362.928,49.014 329.335,29.407 295.736,9.801 259.058,0 219.273,0 179.492,0 142.803,9.801 109.21,29.407 75.615,49.011 49.018,75.608 29.41,109.203 9.801,142.8 0,179.489 0,219.267 c 0,39.78 9.804,76.463 29.407,110.062 19.607,33.592 46.204,60.189 79.799,79.798 33.597,19.605 70.283,29.407 110.063,29.407 39.78,0 76.47,-9.802 110.065,-29.407 33.593,-19.602 60.189,-46.206 79.795,-79.798 19.603,-33.596 29.403,-70.284 29.403,-110.062 0.001,-39.782 -9.8,-76.472 -29.399,-110.064 z m -86.512,161.736 c 3.617,3.613 5.428,7.905 5.428,12.854 0,5.133 -1.811,9.514 -5.428,13.127 l -25.693,25.701 c -3.614,3.613 -7.994,5.42 -13.135,5.42 -4.948,0 -9.236,-1.807 -12.847,-5.42 l -51.676,-51.682 -51.678,51.682 c -3.616,3.613 -7.898,5.42 -12.847,5.42 -5.14,0 -9.517,-1.807 -13.134,-5.42 L 115.914,296.92 c -3.616,-3.613 -5.424,-7.994 -5.424,-13.127 0,-4.948 1.809,-9.24 5.424,-12.854 l 51.678,-51.673 -51.678,-51.678 c -3.616,-3.612 -5.424,-7.898 -5.424,-12.847 0,-5.14 1.809,-9.517 5.424,-13.134 l 25.697,-25.693 c 3.617,-3.616 7.994,-5.424 13.134,-5.424 4.949,0 9.231,1.809 12.847,5.424 l 51.678,51.674 51.676,-51.674 c 3.61,-3.616 7.898,-5.424 12.847,-5.424 5.141,0 9.521,1.809 13.135,5.424 l 25.693,25.693 c 3.617,3.617 5.428,7.994 5.428,13.134 0,4.948 -1.811,9.235 -5.428,12.847 l -51.675,51.678 51.675,51.673 z"
       id="path5"
       style="fill:#ffffff;stroke:#000000;stroke-width:45.06809235;stroke-miterlimit:4;stroke-dasharray:none;stroke-opacity:1" /></g></svg>