<?xml version="1.0" encoding="utf-8"?>
<!-- Generator: Adobe Illustrator 16.0.0, SVG Export Plug-In . SVG Version: 6.00 Build 0)  -->
<!DOCTYPE svg PUBLIC "-//W3C//DTD SVG 1.1//EN" "http://www.w3.org/Graphics/SVG/1.1/DTD/svg11.dtd">
<svg version="1.1" id="Layer_1" xmlns="http://www.w3.org/2000/svg" xmlns:xlink="http://www.w3.org/1999/xlink" x="0px" y="0px"
	 width="60px" height="60px" viewBox="0 0 60 60" enable-background="new 0 0 60 60" xml:space="preserve">
<g>
	<g>
		<g>
			<path fill="none" stroke="#000000" stroke-miterlimit="10" d="M29.609,0.5c-6.347,0-12.41,1.94-17.534,5.608
				c-0.587,0.421-0.746,1.216-0.366,1.825l4.813,7.706c0.204,0.324,0.533,0.55,0.912,0.624c0.378,0.074,0.771-0.012,1.083-0.235
				c2.996-2.145,6.541-3.278,10.25-3.278c9.635,0,17.479,7.739,17.479,17.25s-7.844,17.249-17.479,17.249
				c-3.71,0-7.255-1.133-10.25-3.276c-0.312-0.227-0.705-0.311-1.083-0.236c-0.379,0.074-0.708,0.303-0.912,0.628l-4.813,7.702
				c-0.38,0.608-0.222,1.406,0.366,1.826c5.124,3.67,11.188,5.608,17.534,5.608C46.091,59.5,59.5,46.266,59.5,30
				C59.5,13.734,46.091,0.5,29.609,0.5z"/>
			<path fill="none" stroke="#000000" stroke-miterlimit="10" d="M21.846,39.658c-0.285,0.421-0.311,0.961-0.069,1.404
				c0.241,0.444,0.711,0.726,1.222,0.726h9.383c0.464,0,0.896-0.229,1.155-0.61l7.035-10.419c0.311-0.461,0.311-1.058,0-1.518
				l-7.035-10.419c-0.26-0.379-0.691-0.609-1.155-0.609H23c-0.511,0-0.981,0.278-1.222,0.724c-0.242,0.445-0.215,0.984,0.069,1.404
				l3.254,4.819H5.405C2.7,25.159,0.5,27.331,0.5,30c0,2.67,2.2,4.84,4.905,4.84H25.1L21.846,39.658z"/>
		</g>
	</g>
</g>
</svg>
