<?xml version="1.0" encoding="utf-8"?>
<!-- Generator: Adobe Illustrator 16.0.0, SVG Export Plug-In . SVG Version: 6.00 Build 0)  -->
<!DOCTYPE svg PUBLIC "-//W3C//DTD SVG 1.1//EN" "http://www.w3.org/Graphics/SVG/1.1/DTD/svg11.dtd">
<svg version="1.1" id="Layer_1" xmlns="http://www.w3.org/2000/svg" xmlns:xlink="http://www.w3.org/1999/xlink" x="0px" y="0px"
	 width="60px" height="60px" viewBox="0 0 60 60" enable-background="new 0 0 60 60" xml:space="preserve">
<g>
	<g>
		<g>
			<path d="M29.602,0c-6.454,0-12.62,1.973-17.831,5.703c-0.597,0.428-0.759,1.237-0.372,1.856l4.894,7.836
				c0.207,0.33,0.542,0.56,0.927,0.635c0.385,0.075,0.784-0.012,1.102-0.239c3.046-2.181,6.651-3.334,10.424-3.334
				c9.799,0,17.775,7.87,17.775,17.542S38.545,47.54,28.746,47.54c-3.773,0-7.378-1.151-10.424-3.333
				c-0.317-0.229-0.717-0.314-1.102-0.239c-0.385,0.076-0.72,0.308-0.927,0.638l-4.894,7.834c-0.387,0.619-0.226,1.43,0.372,1.856
				C16.982,58.027,23.148,60,29.602,60C46.363,60,60,46.541,60,30C60,13.458,46.363,0,29.602,0z"/>
			<path d="M21.708,39.822c-0.29,0.428-0.316,0.977-0.07,1.428c0.245,0.453,0.723,0.738,1.243,0.738h9.542
				c0.472,0,0.911-0.234,1.175-0.621l7.155-10.596c0.315-0.468,0.315-1.076,0-1.543l-7.155-10.596
				c-0.264-0.386-0.703-0.62-1.175-0.62h-9.542c-0.52,0-0.998,0.283-1.243,0.736c-0.246,0.452-0.219,1.001,0.07,1.428l3.309,4.9
				H4.988C2.237,25.077,0,27.285,0,30s2.237,4.922,4.988,4.922h20.029L21.708,39.822z"/>
		</g>
	</g>
</g>
</svg>
