<?xml version="1.0" encoding="utf-8"?>
<!-- Generator: Adobe Illustrator 16.0.0, SVG Export Plug-In . SVG Version: 6.00 Build 0)  -->
<!DOCTYPE svg PUBLIC "-//W3C//DTD SVG 1.1//EN" "http://www.w3.org/Graphics/SVG/1.1/DTD/svg11.dtd">
<svg version="1.1" id="Layer_1" xmlns="http://www.w3.org/2000/svg" xmlns:xlink="http://www.w3.org/1999/xlink" x="0px" y="0px"
	 width="60px" height="60px" viewBox="0 0 60 60" enable-background="new 0 0 60 60" xml:space="preserve">
<g id="g5473" transform="matrix(-1,0,0,1,296.99975,0)">
	<g id="g5475">
		<g id="g5477">
			<path id="path5479" fill="#FFFFFF" d="M268.313,1.313c-6.091,0-11.909,1.887-16.827,5.454c-0.563,0.408-0.717,1.183-0.352,1.775
				l4.619,7.493c0.192,0.314,0.51,0.535,0.873,0.606c0.362,0.071,0.739-0.011,1.04-0.228c2.874-2.086,6.275-3.188,9.837-3.188
				c9.249,0,16.773,7.524,16.773,16.774c0,9.249-7.524,16.772-16.773,16.772c-3.562,0-6.963-1.102-9.837-3.188
				c-0.301-0.218-0.678-0.301-1.04-0.229c-0.363,0.071-0.681,0.291-0.873,0.606l-4.619,7.493c-0.365,0.593-0.213,1.365,0.352,1.773
				c4.918,3.568,10.736,5.455,16.827,5.455C284.131,58.688,297,45.818,297,30C297,14.182,284.131,1.313,268.313,1.313z"/>
			<path id="path5481" fill="#FFFFFF" d="M255.261,40.759c0.231-0.433,0.207-0.958-0.064-1.364l-3.124-4.688h18.902
				c2.596,0,4.708-2.111,4.708-4.707c0-2.596-2.112-4.708-4.708-4.708h-18.902l3.124-4.686c0.271-0.408,0.297-0.933,0.064-1.365
				c-0.231-0.432-0.683-0.703-1.172-0.703h-9.007c-0.442,0-0.858,0.223-1.104,0.593l-6.756,10.131c-0.297,0.447-0.297,1.029,0,1.476
				l6.754,10.132c0.248,0.37,0.662,0.592,1.106,0.592h9.007C254.581,41.461,255.031,41.191,255.261,40.759z"/>
		</g>
	</g>
</g>
</svg>
