<?xml version="1.0" encoding="utf-8"?>
<!-- Generator: Adobe Illustrator 16.0.0, SVG Export Plug-In . SVG Version: 6.00 Build 0)  -->
<!DOCTYPE svg PUBLIC "-//W3C//DTD SVG 1.1//EN" "http://www.w3.org/Graphics/SVG/1.1/DTD/svg11.dtd">
<svg version="1.1" id="Layer_1" xmlns="http://www.w3.org/2000/svg" xmlns:xlink="http://www.w3.org/1999/xlink" x="0px" y="0px"
	 width="40px" height="18px" viewBox="0 0 40 18" enable-background="new 0 0 40 18" xml:space="preserve">
<g>
	<g>
		<g>
			<path fill="#010101" d="M38.956-0.006H16.604c-0.707,0-1.397,0.572-1.543,1.279l-3.177,15.453
				c-0.145,0.707,0.311,1.279,1.017,1.279h22.352c0.707,0,1.397-0.572,1.543-1.279l3.177-15.453
				C40.118,0.566,39.663-0.006,38.956-0.006z M36.282,5.166l-9.92,4.783c-0.428,0.207-0.915,0.207-1.258,0l-7.953-4.783
				c-0.577-0.347-0.656-1.156-0.175-1.805c0.321-0.434,0.828-0.704,1.321-0.704c0.218,0,0.424,0.055,0.596,0.158l7.392,4.447
				l9.222-4.447c0.214-0.104,0.442-0.158,0.661-0.158c0.493,0,0.888,0.271,1.031,0.704C37.413,4.01,37.002,4.819,36.282,5.166z"/>
			<path fill="#010101" d="M3.506,3.368h9.63c0.51,0,0.923-0.413,0.923-0.922c0-0.51-0.413-0.923-0.923-0.923h-9.63
				c-0.51,0-0.923,0.413-0.923,0.923C2.583,2.955,2.997,3.368,3.506,3.368z"/>
			<path fill="#010101" d="M10.553,9.919h-9.63C0.413,9.919,0,10.332,0,10.842s0.413,0.922,0.923,0.922h9.63
				c0.509,0,0.923-0.412,0.923-0.922S11.063,9.919,10.553,9.919z"/>
			<path fill="#010101" d="M12.768,6.59c0-0.51-0.413-0.922-0.922-0.922H6.089c-0.509,0-0.922,0.412-0.922,0.922
				S5.58,7.513,6.089,7.513h5.756C12.354,7.513,12.768,7.1,12.768,6.59z"/>
			<path fill="#010101" d="M9.261,14.063H6.186c-0.51,0-0.923,0.414-0.923,0.924c0,0.508,0.413,0.922,0.923,0.922h3.075
				c0.51,0,0.923-0.412,0.923-0.922S9.771,14.063,9.261,14.063z"/>
		</g>
	</g>
</g>
</svg>
