<?xml version="1.0" encoding="utf-8"?>
<!-- Generator: Adobe Illustrator 16.0.0, SVG Export Plug-In . SVG Version: 6.00 Build 0)  -->
<!DOCTYPE svg PUBLIC "-//W3C//DTD SVG 1.1//EN" "http://www.w3.org/Graphics/SVG/1.1/DTD/svg11.dtd">
<svg version="1.1" id="Layer_1" xmlns="http://www.w3.org/2000/svg" xmlns:xlink="http://www.w3.org/1999/xlink" x="0px" y="0px"
	 width="40px" height="18px" viewBox="0 0 40 18" enable-background="new 0 0 40 18" xml:space="preserve">
<g id="g3" transform="matrix(0.98323048,0,0,0.98323048,3.9580762,2.1073585)">
	<g id="g5">
		<g id="g7">
			<path id="path9" fill="none" stroke="#010101" d="M34.631-1.691H13.035
				c-0.683,0-1.35,0.553-1.491,1.236l-3.07,14.931c-0.14,0.683,0.3,1.237,0.982,1.237h21.598c0.683,0,1.351-0.553,1.49-1.237
				l3.07-14.931C35.754-1.138,35.314-1.691,34.631-1.691z M32.047,3.305l-9.584,4.621c-0.414,0.201-0.885,0.201-1.216,0
				l-7.684-4.621c-0.557-0.335-0.633-1.117-0.169-1.744c0.311-0.418,0.8-0.679,1.276-0.679c0.211,0,0.41,0.053,0.576,0.152
				l7.143,4.298l8.91-4.298c0.207-0.099,0.427-0.152,0.638-0.152c0.477,0,0.858,0.261,0.996,0.679
				C33.141,2.188,32.743,2.971,32.047,3.305L32.047,3.305z"/>
			<path id="path11" fill="none" stroke="#010101" d="M0.379,1.568h9.305
				c0.493,0,0.891-0.399,0.891-0.892c0-0.492-0.399-0.89-0.891-0.89H0.379c-0.492,0-0.892,0.398-0.892,0.89
				C-0.513,1.169-0.113,1.568,0.379,1.568z"/>
			<path id="path13" fill="none" stroke="#010101" d="M7.188,7.898h-9.305
				c-0.493,0-0.891,0.399-0.891,0.892c0,0.493,0.399,0.891,0.891,0.891h9.305c0.492,0,0.891-0.398,0.891-0.891
				C8.08,8.297,7.68,7.898,7.188,7.898z"/>
			<path id="path15" fill="none" stroke="#010101" d="M9.327,4.681
				c0-0.493-0.398-0.891-0.891-0.891H2.875c-0.492,0-0.89,0.398-0.89,0.891s0.398,0.892,0.89,0.892h5.562
				C8.929,5.573,9.327,5.174,9.327,4.681z"/>
			<path id="path17" fill="none" stroke="#010101" d="M5.94,11.902H2.969
				c-0.492,0-0.892,0.4-0.892,0.893c0,0.491,0.4,0.89,0.892,0.89H5.94c0.493,0,0.892-0.398,0.892-0.89
				C6.832,12.302,6.433,11.902,5.94,11.902z"/>
		</g>
	</g>
</g>
</svg>
