<?xml version="1.0" encoding="utf-8"?>
<!-- Generator: Adobe Illustrator 16.0.0, SVG Export Plug-In . SVG Version: 6.00 Build 0)  -->
<!DOCTYPE svg PUBLIC "-//W3C//DTD SVG 1.1//EN" "http://www.w3.org/Graphics/SVG/1.1/DTD/svg11.dtd">
<svg version="1.1" id="Layer_1" xmlns="http://www.w3.org/2000/svg" xmlns:xlink="http://www.w3.org/1999/xlink" x="0px" y="0px"
	 width="30px" height="30px" viewBox="0 0 30 30" enable-background="new 0 0 30 30" xml:space="preserve">
<g>
	<path fill="#FFFFFF" d="M15,0C6.729,0,0,6.729,0,15c0,8.271,6.729,15,15,15c8.271,0,15-6.729,15-15C30,6.729,23.271,0,15,0z
		 M15,28.846C7.365,28.846,1.154,22.635,1.154,15S7.365,1.154,15,1.154S28.846,7.365,28.846,15S22.635,28.846,15,28.846z"/>
	<path fill="#FFFFFF" d="M20.6,9.4c-0.225-0.227-0.59-0.227-0.814,0L15,14.185L10.216,9.4C9.99,9.174,9.625,9.174,9.4,9.4
		c-0.226,0.225-0.226,0.59,0,0.815L14.185,15L9.4,19.784c-0.226,0.226-0.226,0.591,0,0.815c0.112,0.112,0.26,0.17,0.408,0.17
		s0.295-0.058,0.408-0.17L15,15.814l4.784,4.785c0.112,0.112,0.261,0.17,0.407,0.17c0.147,0,0.297-0.058,0.408-0.17
		c0.227-0.226,0.227-0.591,0-0.815L15.814,15l4.785-4.784C20.826,9.99,20.826,9.625,20.6,9.4z"/>
</g>
</svg>
