<?xml version="1.0" encoding="UTF-8" standalone="no"?>
<!-- Created with Inkscape (http://www.inkscape.org/) -->

<svg
   xmlns:dc="http://purl.org/dc/elements/1.1/"
   xmlns:cc="http://creativecommons.org/ns#"
   xmlns:rdf="http://www.w3.org/1999/02/22-rdf-syntax-ns#"
   xmlns:svg="http://www.w3.org/2000/svg"
   xmlns="http://www.w3.org/2000/svg"
   xmlns:sodipodi="http://sodipodi.sourceforge.net/DTD/sodipodi-0.dtd"
   xmlns:inkscape="http://www.inkscape.org/namespaces/inkscape"
   id="svg2"
   version="1.1"
   inkscape:version="0.91 r13725"
   xml:space="preserve"
   width="30"
   height="30"
   viewBox="0 0 295 296.25"
   sodipodi:docname="add-button.svg"><metadata
     id="metadata8"><rdf:RDF><cc:Work
         rdf:about=""><dc:format>image/svg+xml</dc:format><dc:type
           rdf:resource="http://purl.org/dc/dcmitype/StillImage" /><dc:title /></cc:Work></rdf:RDF></metadata><defs
     id="defs6"><clipPath
       clipPathUnits="userSpaceOnUse"
       id="clipPath18"><path
         d="m 0,8.19141 2360,0 0,2359.99999 -2360,0 L 0,8.19141 Z"
         id="path20"
         inkscape:connector-curvature="0" /></clipPath></defs><sodipodi:namedview
     pagecolor="#ffffff"
     bordercolor="#666666"
     borderopacity="1"
     objecttolerance="10"
     gridtolerance="10"
     guidetolerance="10"
     inkscape:pageopacity="0"
     inkscape:pageshadow="2"
     inkscape:window-width="1301"
     inkscape:window-height="744"
     id="namedview4"
     showgrid="false"
     inkscape:zoom="1.1265971"
     inkscape:cx="-2.9530768"
     inkscape:cy="291.12411"
     inkscape:window-x="65"
     inkscape:window-y="24"
     inkscape:window-maximized="1"
     inkscape:current-layer="g10" /><g
     id="g10"
     inkscape:groupmode="layer"
     inkscape:label="ink_ext_XXXXXX"
     transform="matrix(1.25,0,0,-1.25,0,296.25)"><g
       id="g12"
       transform="scale(0.1,0.1)"><g
         id="g14"><g
           id="g16"
           clip-path="url(#clipPath18)"><path
             d="m 2012.77,2022.76 c -168.5013,168.4613 -395.8775,335.2546 -833.0472,347.8038 31.7241,-5.3635 -26.2537,-80.2204 1.4914,-96.5115 C 1671.941,2253.0371 1854.739,2030.819 1944.88,1954.87 2367.3,1532.49 2367.3,845.18 1944.88,422.762 1522.46,0.339844 835.16,0.339844 412.77,422.762 -9.64844,845.18 -9.64844,1532.49 412.77,1954.87 c 204.609,204.65 476.71372,312.8273 766.06,317.31 162.052,2.5106 47.97,21.52 47.97,48 0,26.53 -21.49,48.01 -47.97,48.01 -315.041,0 -611.209,-122.65 -833.951,-345.43 -459.84,-459.84 -459.84,-1208.041 0,-1667.889 C 574.801,124.949 876.801,9.98828 1178.83,9.98828 c 301.99,0 604.02,114.96072 833.94,344.88272 459.81,459.848 459.81,1208.049 0,1667.889 z"
             style="fill:#000000;fill-opacity:1;fill-rule:nonzero;stroke:none"
             id="path22"
             inkscape:connector-curvature="0"
             sodipodi:nodetypes="ccccsccssscsscc" /><path
             d="m 1178.83,1952.25 c -26.53,0 -96.01,-21.48 -96.01,-48 l 0,-1430.859 c 0,-26.532 69.48,-48.012 96.01,-48.012 26.48,0 96.01,21.48 96.01,48.012 l 0,1430.859 c 0,26.52 -69.53,48 -96.01,48 z"
             style="fill:#000000;fill-opacity:1;fill-rule:nonzero;stroke:none"
             id="path24"
             inkscape:connector-curvature="0"
             sodipodi:nodetypes="sssssss" /><path
             d="m 1530.82,1140.81 363.44,0 c 26.52,0 48.01,21.52 48.01,48.01 0,26.52 -21.49,48 -48.01,48 l -363.44,0 c -26.52,0 -48.01,-21.48 -48.01,-48 0,-26.49 21.49,-48.01 48.01,-48.01 z"
             style="fill:#000000;fill-opacity:1;fill-rule:nonzero;stroke:none"
             id="path26"
             inkscape:connector-curvature="0"
             sodipodi:nodetypes="sssssss" /><path
             d="m 463.359,1236.82 c -26.48,0 -47.968,-21.48 -47.968,-48 0,-26.49 21.488,-48.01 47.968,-48.01 l 347.461,0 c 26.481,0 48.01,21.52 48.01,48.01 0,26.52 -21.529,48 -48.01,48 z"
             style="fill:#000000;fill-opacity:1;fill-rule:nonzero;stroke:none"
             id="path28"
             inkscape:connector-curvature="0"
             sodipodi:nodetypes="sssssss" /></g></g></g></g></svg>