<?xml version="1.0" encoding="utf-8"?>
<!-- Generator: Adobe Illustrator 16.0.0, SVG Export Plug-In . SVG Version: 6.00 Build 0)  -->
<!DOCTYPE svg PUBLIC "-//W3C//DTD SVG 1.1//EN" "http://www.w3.org/Graphics/SVG/1.1/DTD/svg11.dtd">
<svg version="1.1"
	 id="Capa_1" xmlns:svg="http://www.w3.org/2000/svg" xmlns:cc="http://creativecommons.org/ns#" xmlns:dc="http://purl.org/dc/elements/1.1/" xmlns:inkscape="http://www.inkscape.org/namespaces/inkscape" xmlns:rdf="http://www.w3.org/1999/02/22-rdf-syntax-ns#" xmlns:sodipodi="http://sodipodi.sourceforge.net/DTD/sodipodi-0.dtd" sodipodi:docname="question-mark-white.svg" inkscape:version="0.91 r13725"
	 xmlns="http://www.w3.org/2000/svg" xmlns:xlink="http://www.w3.org/1999/xlink" x="0px" y="0px" width="60px" height="60px"
	 viewBox="0 0 60 60" enable-background="new 0 0 60 60" xml:space="preserve">
<g id="g3416">
	<path id="path3418" fill="#FFFFFF" d="M29.599,0.002C13.032,0.224-0.218,13.836,0.003,30.404
		c0.222,16.561,13.832,29.814,30.398,29.594c16.563-0.224,29.815-13.835,29.596-30.402C59.774,13.034,46.163-0.218,29.599,0.002z
		 M29.51,48.261l-0.166-0.003c-2.551-0.075-4.35-1.955-4.278-4.469c0.071-2.47,1.914-4.264,4.381-4.264l0.148,0.003
		c2.622,0.077,4.4,1.938,4.327,4.524C33.85,46.529,32.036,48.261,29.51,48.261z M40.241,26.961c-0.6,0.853-1.919,1.911-3.582,3.206
		l-1.83,1.264c-1.005,0.781-1.611,1.516-1.84,2.239c-0.179,0.569-0.267,0.72-0.282,1.878l-0.003,0.295h-6.989l0.02-0.592
		c0.085-2.432,0.146-3.861,1.153-5.043c1.581-1.856,5.068-4.101,5.215-4.197c0.499-0.376,0.921-0.805,1.235-1.262
		c0.732-1.012,1.058-1.808,1.058-2.591c0-1.085-0.322-2.09-0.959-2.984c-0.612-0.863-1.776-1.3-3.458-1.3
		c-1.669,0-2.812,0.529-3.495,1.616c-0.703,1.117-1.059,2.291-1.059,3.489v0.298h-7.207l0.013-0.311
		c0.186-4.415,1.761-7.593,4.681-9.448c1.834-1.181,4.117-1.78,6.781-1.78c3.486,0,6.429,0.847,8.747,2.518
		c2.348,1.693,3.539,4.229,3.539,7.537C41.979,23.644,41.395,25.382,40.241,26.961z"/>
</g>
</svg>
