<?xml version="1.0" encoding="utf-8"?>
<!-- Generator: Adobe Illustrator 16.0.0, SVG Export Plug-In . SVG Version: 6.00 Build 0)  -->
<!DOCTYPE svg PUBLIC "-//W3C//DTD SVG 1.1//EN" "http://www.w3.org/Graphics/SVG/1.1/DTD/svg11.dtd">
<svg version="1.1" id="Layer_1" xmlns="http://www.w3.org/2000/svg" xmlns:xlink="http://www.w3.org/1999/xlink" x="0px" y="0px"
	 width="60px" height="60px" viewBox="0 0 60 60" enable-background="new 0 0 60 60" xml:space="preserve">
<g>
	<g>
		<path fill="#FFFFFF" stroke="#000000" stroke-miterlimit="10" d="M13.175,56.653c0.067,1.593,1.376,2.847,2.967,2.847h27.718
			c1.592,0,2.9-1.254,2.967-2.847l1.982-41.789H11.195L13.175,56.653z M36.271,25.246c0-0.666,0.539-1.207,1.205-1.207h1.93
			c0.666,0,1.209,0.541,1.209,1.207v23.875c0,0.666-0.541,1.205-1.209,1.205h-1.93c-0.666,0-1.205-0.539-1.205-1.205V25.246z
			 M27.83,25.246c0-0.666,0.54-1.207,1.206-1.207h1.929c0.668,0,1.207,0.541,1.207,1.207v23.875c0,0.666-0.539,1.205-1.207,1.205
			h-1.929c-0.666,0-1.206-0.539-1.206-1.205V25.246L27.83,25.246z M19.39,25.246c0-0.666,0.54-1.207,1.206-1.207h1.93
			c0.667,0,1.207,0.541,1.207,1.207v23.875c0,0.666-0.54,1.205-1.207,1.205h-1.93c-0.665,0-1.206-0.539-1.206-1.205V25.246z"/>
		<path fill="#FFFFFF" stroke="#000000" stroke-miterlimit="10" d="M50.125,3.539H37.336V1.121c0-0.343-0.277-0.621-0.621-0.621
			H23.286c-0.343,0-0.621,0.278-0.621,0.621v2.417H9.878c-1.029,0-1.864,0.835-1.864,1.864v5.853h43.973V5.403
			C51.986,4.374,51.154,3.539,50.125,3.539z"/>
	</g>
</g>
</svg>
