<?xml version="1.0" encoding="utf-8"?>
<!-- Generator: Adobe Illustrator 16.0.0, SVG Export Plug-In . SVG Version: 6.00 Build 0)  -->
<!DOCTYPE svg PUBLIC "-//W3C//DTD SVG 1.1//EN" "http://www.w3.org/Graphics/SVG/1.1/DTD/svg11.dtd">
<svg version="1.1" id="Layer_1" xmlns="http://www.w3.org/2000/svg" xmlns:xlink="http://www.w3.org/1999/xlink" x="0px" y="0px"
	 width="60px" height="60px" viewBox="0 0 60 60" enable-background="new 0 0 60 60" xml:space="preserve">
<g>
	<g>
		<path fill="none" stroke="#000000" stroke-miterlimit="10" d="M13.458,56.203C13.524,57.768,14.812,59,16.375,59h27.25
			c1.564,0,2.852-1.232,2.916-2.797l1.945-41.08H11.514L13.458,56.203z M36.164,25.326c0-0.654,0.531-1.186,1.186-1.186h1.896
			c0.652,0,1.188,0.531,1.188,1.186v23.471c0,0.654-0.533,1.186-1.188,1.186H37.35c-0.654,0-1.186-0.53-1.186-1.186V25.326z
			 M27.866,25.326c0-0.654,0.53-1.186,1.185-1.186h1.896c0.654,0,1.188,0.531,1.188,1.186v23.471c0,0.654-0.531,1.186-1.188,1.186
			h-1.896c-0.653,0-1.185-0.53-1.185-1.186V25.326L27.866,25.326z M19.568,25.326c0-0.654,0.531-1.186,1.186-1.186h1.896
			c0.654,0,1.185,0.531,1.185,1.186v23.471c0,0.654-0.529,1.186-1.185,1.186h-1.896c-0.654,0-1.186-0.53-1.186-1.186V25.326z"/>
		<path fill="none" stroke="#000000" stroke-miterlimit="10" d="M49.781,3.987h-12.57V1.611C37.211,1.274,36.939,1,36.602,1H23.398
			c-0.337,0-0.611,0.274-0.611,0.611v2.376h-12.57c-1.012,0-1.832,0.82-1.832,1.833v5.753h43.23V5.82
			C51.613,4.808,50.795,3.987,49.781,3.987z"/>
	</g>
</g>
</svg>
