<?xml version="1.0" encoding="utf-8"?>
<!-- Generator: Adobe Illustrator 16.0.0, SVG Export Plug-In . SVG Version: 6.00 Build 0)  -->
<!DOCTYPE svg PUBLIC "-//W3C//DTD SVG 1.1//EN" "http://www.w3.org/Graphics/SVG/1.1/DTD/svg11.dtd">
<svg version="1.1" id="Layer_1" xmlns="http://www.w3.org/2000/svg" xmlns:xlink="http://www.w3.org/1999/xlink" x="0px" y="0px"
	 width="60px" height="60px" viewBox="0 0 60 60" enable-background="new 0 0 60 60" xml:space="preserve">
<g>
	<g>
		<path fill="#010101" d="M12.889,57.106C12.957,58.724,14.288,60,15.906,60h28.188c1.618,0,2.949-1.276,3.017-2.894l2.014-42.497
			H10.876L12.889,57.106z M36.377,25.165c0-0.677,0.549-1.227,1.227-1.227h1.961c0.677,0,1.228,0.55,1.228,1.227v24.28
			c0,0.677-0.55,1.226-1.228,1.226h-1.961c-0.678,0-1.227-0.549-1.227-1.226V25.165z M27.793,25.165
			c0-0.677,0.549-1.227,1.226-1.227h1.962c0.677,0,1.227,0.55,1.227,1.227v24.28c0,0.677-0.549,1.226-1.227,1.226h-1.962
			c-0.677,0-1.226-0.549-1.226-1.226V25.165L27.793,25.165z M19.209,25.165c0-0.677,0.549-1.227,1.227-1.227h1.962
			c0.677,0,1.226,0.55,1.226,1.227v24.28c0,0.677-0.549,1.226-1.226,1.226h-1.962c-0.677,0-1.227-0.549-1.227-1.226V25.165z"/>
		<path fill="#010101" d="M50.465,3.09H37.46V0.632C37.46,0.283,37.178,0,36.828,0H23.172c-0.349,0-0.632,0.283-0.632,0.632V3.09
			H9.536c-1.047,0-1.895,0.849-1.895,1.896v5.952h44.719V4.986C52.359,3.939,51.512,3.09,50.465,3.09z"/>
	</g>
</g>
</svg>
